<mxfile host="Electron" modified="2023-04-30T10:31:43.466Z" agent="Mozilla/5.0 (Windows NT 10.0; Win64; x64) AppleWebKit/537.36 (KHTML, like Gecko) draw.io/21.2.1 Chrome/112.0.5615.87 Electron/24.1.2 Safari/537.36" etag="C_62_CaDwaGzhIWEaOjq" version="21.2.1" type="device">
  <diagram id="C5RBs43oDa-KdzZeNtuy" name="Page-1">
    <mxGraphModel dx="1036" dy="606" grid="1" gridSize="10" guides="1" tooltips="1" connect="1" arrows="1" fold="1" page="1" pageScale="1" pageWidth="827" pageHeight="1169" math="0" shadow="0">
      <root>
        <mxCell id="WIyWlLk6GJQsqaUBKTNV-0" />
        <mxCell id="WIyWlLk6GJQsqaUBKTNV-1" parent="WIyWlLk6GJQsqaUBKTNV-0" />
        <mxCell id="t8WX7DlcegMJKcKcP-0D-7" value="" style="edgeStyle=orthogonalEdgeStyle;rounded=0;orthogonalLoop=1;jettySize=auto;html=1;" parent="WIyWlLk6GJQsqaUBKTNV-1" source="t8WX7DlcegMJKcKcP-0D-4" edge="1">
          <mxGeometry relative="1" as="geometry">
            <mxPoint x="90" y="150" as="targetPoint" />
            <Array as="points">
              <mxPoint x="175" y="130" />
              <mxPoint x="90" y="130" />
            </Array>
          </mxGeometry>
        </mxCell>
        <mxCell id="t8WX7DlcegMJKcKcP-0D-22" style="edgeStyle=orthogonalEdgeStyle;rounded=0;orthogonalLoop=1;jettySize=auto;html=1;" parent="WIyWlLk6GJQsqaUBKTNV-1" source="t8WX7DlcegMJKcKcP-0D-4" target="t8WX7DlcegMJKcKcP-0D-16" edge="1">
          <mxGeometry relative="1" as="geometry" />
        </mxCell>
        <mxCell id="t8WX7DlcegMJKcKcP-0D-4" value="#includet添加头文件&lt;br&gt;添加设备句柄" style="ellipse;whiteSpace=wrap;html=1;" parent="WIyWlLk6GJQsqaUBKTNV-1" vertex="1">
          <mxGeometry x="110" y="30" width="130" height="80" as="geometry" />
        </mxCell>
        <mxCell id="t8WX7DlcegMJKcKcP-0D-8" style="edgeStyle=orthogonalEdgeStyle;rounded=0;orthogonalLoop=1;jettySize=auto;html=1;exitX=0.5;exitY=1;exitDx=0;exitDy=0;entryX=0.5;entryY=0;entryDx=0;entryDy=0;" parent="WIyWlLk6GJQsqaUBKTNV-1" source="t8WX7DlcegMJKcKcP-0D-9" target="t8WX7DlcegMJKcKcP-0D-12" edge="1">
          <mxGeometry relative="1" as="geometry" />
        </mxCell>
        <mxCell id="t8WX7DlcegMJKcKcP-0D-9" value="定义MyMainWindowpro类" style="rounded=1;whiteSpace=wrap;html=1;fontSize=12;glass=0;strokeWidth=1;shadow=0;" parent="WIyWlLk6GJQsqaUBKTNV-1" vertex="1">
          <mxGeometry x="30" y="150" width="120" height="40" as="geometry" />
        </mxCell>
        <mxCell id="t8WX7DlcegMJKcKcP-0D-29" style="edgeStyle=orthogonalEdgeStyle;rounded=0;orthogonalLoop=1;jettySize=auto;html=1;exitX=0.5;exitY=1;exitDx=0;exitDy=0;entryX=0.5;entryY=0;entryDx=0;entryDy=0;" parent="WIyWlLk6GJQsqaUBKTNV-1" source="t8WX7DlcegMJKcKcP-0D-10" target="t8WX7DlcegMJKcKcP-0D-23" edge="1">
          <mxGeometry relative="1" as="geometry" />
        </mxCell>
        <mxCell id="t8WX7DlcegMJKcKcP-0D-10" value="定义槽函数&lt;br&gt;（图像处理）" style="rounded=1;whiteSpace=wrap;html=1;fontSize=12;glass=0;strokeWidth=1;shadow=0;" parent="WIyWlLk6GJQsqaUBKTNV-1" vertex="1">
          <mxGeometry x="30" y="410" width="120" height="40" as="geometry" />
        </mxCell>
        <mxCell id="t8WX7DlcegMJKcKcP-0D-11" style="edgeStyle=orthogonalEdgeStyle;rounded=0;orthogonalLoop=1;jettySize=auto;html=1;exitX=0.5;exitY=1;exitDx=0;exitDy=0;entryX=0.5;entryY=0;entryDx=0;entryDy=0;" parent="WIyWlLk6GJQsqaUBKTNV-1" source="t8WX7DlcegMJKcKcP-0D-12" target="t8WX7DlcegMJKcKcP-0D-14" edge="1">
          <mxGeometry relative="1" as="geometry" />
        </mxCell>
        <mxCell id="t8WX7DlcegMJKcKcP-0D-12" value="添加界面布局和按钮" style="rounded=1;whiteSpace=wrap;html=1;fontSize=12;glass=0;strokeWidth=1;shadow=0;" parent="WIyWlLk6GJQsqaUBKTNV-1" vertex="1">
          <mxGeometry x="30" y="240" width="120" height="40" as="geometry" />
        </mxCell>
        <mxCell id="t8WX7DlcegMJKcKcP-0D-13" value="" style="edgeStyle=orthogonalEdgeStyle;rounded=0;orthogonalLoop=1;jettySize=auto;html=1;" parent="WIyWlLk6GJQsqaUBKTNV-1" source="t8WX7DlcegMJKcKcP-0D-14" target="t8WX7DlcegMJKcKcP-0D-10" edge="1">
          <mxGeometry relative="1" as="geometry" />
        </mxCell>
        <mxCell id="t8WX7DlcegMJKcKcP-0D-14" value="绘制采集图像" style="rounded=1;whiteSpace=wrap;html=1;fontSize=12;glass=0;strokeWidth=1;shadow=0;" parent="WIyWlLk6GJQsqaUBKTNV-1" vertex="1">
          <mxGeometry x="30" y="330" width="120" height="40" as="geometry" />
        </mxCell>
        <mxCell id="t8WX7DlcegMJKcKcP-0D-15" style="edgeStyle=orthogonalEdgeStyle;rounded=0;orthogonalLoop=1;jettySize=auto;html=1;exitX=0.5;exitY=1;exitDx=0;exitDy=0;entryX=0.5;entryY=0;entryDx=0;entryDy=0;" parent="WIyWlLk6GJQsqaUBKTNV-1" source="t8WX7DlcegMJKcKcP-0D-16" target="t8WX7DlcegMJKcKcP-0D-19" edge="1">
          <mxGeometry relative="1" as="geometry" />
        </mxCell>
        <mxCell id="t8WX7DlcegMJKcKcP-0D-16" value="定义MyMainWindowfirst类" style="rounded=1;whiteSpace=wrap;html=1;fontSize=12;glass=0;strokeWidth=1;shadow=0;" parent="WIyWlLk6GJQsqaUBKTNV-1" vertex="1">
          <mxGeometry x="210" y="150" width="120" height="40" as="geometry" />
        </mxCell>
        <mxCell id="t8WX7DlcegMJKcKcP-0D-30" style="edgeStyle=orthogonalEdgeStyle;rounded=0;orthogonalLoop=1;jettySize=auto;html=1;entryX=0.5;entryY=0;entryDx=0;entryDy=0;" parent="WIyWlLk6GJQsqaUBKTNV-1" source="t8WX7DlcegMJKcKcP-0D-17" target="t8WX7DlcegMJKcKcP-0D-23" edge="1">
          <mxGeometry relative="1" as="geometry" />
        </mxCell>
        <mxCell id="t8WX7DlcegMJKcKcP-0D-17" value="定义槽函数" style="rounded=1;whiteSpace=wrap;html=1;fontSize=12;glass=0;strokeWidth=1;shadow=0;" parent="WIyWlLk6GJQsqaUBKTNV-1" vertex="1">
          <mxGeometry x="210" y="410" width="120" height="40" as="geometry" />
        </mxCell>
        <mxCell id="t8WX7DlcegMJKcKcP-0D-18" style="edgeStyle=orthogonalEdgeStyle;rounded=0;orthogonalLoop=1;jettySize=auto;html=1;exitX=0.5;exitY=1;exitDx=0;exitDy=0;entryX=0.5;entryY=0;entryDx=0;entryDy=0;" parent="WIyWlLk6GJQsqaUBKTNV-1" source="t8WX7DlcegMJKcKcP-0D-19" target="t8WX7DlcegMJKcKcP-0D-21" edge="1">
          <mxGeometry relative="1" as="geometry" />
        </mxCell>
        <mxCell id="t8WX7DlcegMJKcKcP-0D-19" value="添加界面布局和按钮" style="rounded=1;whiteSpace=wrap;html=1;fontSize=12;glass=0;strokeWidth=1;shadow=0;" parent="WIyWlLk6GJQsqaUBKTNV-1" vertex="1">
          <mxGeometry x="210" y="240" width="120" height="40" as="geometry" />
        </mxCell>
        <mxCell id="t8WX7DlcegMJKcKcP-0D-20" value="" style="edgeStyle=orthogonalEdgeStyle;rounded=0;orthogonalLoop=1;jettySize=auto;html=1;" parent="WIyWlLk6GJQsqaUBKTNV-1" source="t8WX7DlcegMJKcKcP-0D-21" target="t8WX7DlcegMJKcKcP-0D-17" edge="1">
          <mxGeometry relative="1" as="geometry" />
        </mxCell>
        <mxCell id="t8WX7DlcegMJKcKcP-0D-21" value="绘制采集图像" style="rounded=1;whiteSpace=wrap;html=1;fontSize=12;glass=0;strokeWidth=1;shadow=0;" parent="WIyWlLk6GJQsqaUBKTNV-1" vertex="1">
          <mxGeometry x="210" y="330" width="120" height="40" as="geometry" />
        </mxCell>
        <mxCell id="t8WX7DlcegMJKcKcP-0D-31" value="" style="edgeStyle=orthogonalEdgeStyle;rounded=0;orthogonalLoop=1;jettySize=auto;html=1;" parent="WIyWlLk6GJQsqaUBKTNV-1" source="t8WX7DlcegMJKcKcP-0D-23" target="t8WX7DlcegMJKcKcP-0D-25" edge="1">
          <mxGeometry relative="1" as="geometry" />
        </mxCell>
        <mxCell id="t8WX7DlcegMJKcKcP-0D-23" value="声明单例类窗口" style="rounded=1;whiteSpace=wrap;html=1;fontSize=12;glass=0;strokeWidth=1;shadow=0;" parent="WIyWlLk6GJQsqaUBKTNV-1" vertex="1">
          <mxGeometry x="530" y="70" width="120" height="40" as="geometry" />
        </mxCell>
        <mxCell id="t8WX7DlcegMJKcKcP-0D-24" value="图像回调处理函数" style="rounded=1;whiteSpace=wrap;html=1;fontSize=12;glass=0;strokeWidth=1;shadow=0;" parent="WIyWlLk6GJQsqaUBKTNV-1" vertex="1">
          <mxGeometry x="530" y="145" width="120" height="40" as="geometry" />
        </mxCell>
        <mxCell id="t8WX7DlcegMJKcKcP-0D-32" value="" style="edgeStyle=orthogonalEdgeStyle;rounded=0;orthogonalLoop=1;jettySize=auto;html=1;" parent="WIyWlLk6GJQsqaUBKTNV-1" source="t8WX7DlcegMJKcKcP-0D-25" target="t8WX7DlcegMJKcKcP-0D-26" edge="1">
          <mxGeometry relative="1" as="geometry" />
        </mxCell>
        <mxCell id="t8WX7DlcegMJKcKcP-0D-25" value="相机运行函数" style="rounded=1;whiteSpace=wrap;html=1;fontSize=12;glass=0;strokeWidth=1;shadow=0;" parent="WIyWlLk6GJQsqaUBKTNV-1" vertex="1">
          <mxGeometry x="530" y="220" width="120" height="40" as="geometry" />
        </mxCell>
        <mxCell id="t8WX7DlcegMJKcKcP-0D-33" value="" style="edgeStyle=orthogonalEdgeStyle;rounded=0;orthogonalLoop=1;jettySize=auto;html=1;" parent="WIyWlLk6GJQsqaUBKTNV-1" source="t8WX7DlcegMJKcKcP-0D-26" target="t8WX7DlcegMJKcKcP-0D-27" edge="1">
          <mxGeometry relative="1" as="geometry" />
        </mxCell>
        <mxCell id="t8WX7DlcegMJKcKcP-0D-26" value="白平衡与曝光相关参数" style="rounded=1;whiteSpace=wrap;html=1;fontSize=12;glass=0;strokeWidth=1;shadow=0;" parent="WIyWlLk6GJQsqaUBKTNV-1" vertex="1">
          <mxGeometry x="530" y="300" width="120" height="40" as="geometry" />
        </mxCell>
        <mxCell id="t8WX7DlcegMJKcKcP-0D-27" value="显示窗口" style="rounded=1;whiteSpace=wrap;html=1;fontSize=12;glass=0;strokeWidth=1;shadow=0;" parent="WIyWlLk6GJQsqaUBKTNV-1" vertex="1">
          <mxGeometry x="530" y="380" width="120" height="40" as="geometry" />
        </mxCell>
        <mxCell id="t8WX7DlcegMJKcKcP-0D-28" value="声明单例类窗口" style="rounded=1;whiteSpace=wrap;html=1;fontSize=12;glass=0;strokeWidth=1;shadow=0;" parent="WIyWlLk6GJQsqaUBKTNV-1" vertex="1">
          <mxGeometry y="740" width="120" height="40" as="geometry" />
        </mxCell>
      </root>
    </mxGraphModel>
  </diagram>
</mxfile>
